<svg version="1.1" id="Layer_1" xmlns="http://www.w3.org/2000/svg" xmlns:xlink="http://www.w3.org/1999/xlink" x="0px" y="0px"
	 width="100%" viewBox="0 0 496 496" enable-background="new 0 0 496 496" xml:space="preserve">
<path fill="#000000" opacity="1.000000" stroke="none" 
	d="
M213.987854,174.056335 
	C205.827179,174.052536 198.163681,174.085114 190.501083,174.018158 
	C188.765167,174.003006 186.265976,174.386597 186.184998,171.860870 
	C186.098389,169.159470 188.666840,169.713852 190.357239,169.677277 
	C198.082596,169.510162 205.827087,169.967773 214.126923,169.099869 
	C210.789856,167.049301 207.919968,165.412994 205.192963,163.565750 
	C203.350479,162.317673 201.793945,162.982666 200.034958,163.650742 
	C194.002289,165.942047 188.577179,161.950607 188.975815,155.592010 
	C189.277695,150.776779 186.259308,147.451157 181.278610,147.425064 
	C171.450684,147.373611 161.621994,147.458099 151.793671,147.495850 
	C151.128769,147.498398 150.453735,147.677017 149.801376,147.606827 
	C147.905457,147.402817 145.185028,147.862198 145.245529,145.058319 
	C145.297073,142.670197 147.796616,142.856247 149.579742,142.838470 
	C155.576401,142.778671 161.574051,142.826889 167.571167,142.799896 
	C169.189911,142.792618 170.808136,142.665344 172.901459,142.571960 
	C169.386353,136.315338 160.868958,133.655731 162.488022,124.941078 
	C157.866653,123.430527 153.372757,124.279655 148.968140,124.149292 
	C143.808075,123.996582 138.639450,124.152336 133.477036,124.049446 
	C131.740295,124.014832 129.242981,124.302238 129.194183,121.801598 
	C129.141678,119.112381 131.695114,119.662003 133.390045,119.651062 
	C143.551682,119.585457 153.723358,119.342209 163.872299,119.703056 
	C169.779419,119.913078 174.578918,117.355080 178.180710,113.697403 
	C182.930573,108.873848 187.593933,103.867249 192.914886,98.066872 
	C183.639664,98.066872 175.255936,98.141640 166.875122,98.018013 
	C164.577240,97.984116 160.751938,99.060410 160.697647,95.744278 
	C160.639008,92.162224 164.561539,92.997040 167.025635,92.964546 
	C175.853470,92.848152 184.683792,92.885521 193.512939,92.921295 
	C196.703140,92.934227 199.770752,92.815201 202.646454,91.043106 
	C206.090820,88.920586 208.668655,90.976578 210.971558,93.336166 
	C215.858658,98.343575 220.653976,103.441376 226.335754,107.593315 
	C237.126053,115.478287 245.150757,114.973984 254.566910,105.562607 
	C256.373322,103.757133 257.866272,103.731987 259.809479,104.983871 
	C262.957520,107.012009 265.304993,109.667130 267.175293,112.950615 
	C271.707367,120.906990 276.546448,128.687881 281.133179,136.613922 
	C284.491119,142.416565 289.035400,146.779282 295.111542,149.709702 
	C298.696716,151.438782 302.093079,153.595734 305.446625,155.758347 
	C308.756470,157.892776 310.285248,161.063278 310.369659,165.051636 
	C310.522125,172.259171 309.509552,179.357712 308.233002,186.391403 
	C307.443054,190.744202 304.558929,193.434250 299.791656,193.332886 
	C294.398193,193.218231 289.263641,193.567245 283.968475,190.504013 
	C280.373077,188.424057 274.553741,184.975403 270.428284,191.326080 
	C269.880310,192.169586 268.597198,192.048431 267.605865,191.771271 
	C256.958527,188.794250 246.065750,190.512146 235.287079,190.063721 
	C234.621613,190.036026 233.947037,190.107086 233.289780,190.026047 
	C231.555634,189.812195 229.079010,190.209930 229.217712,187.578857 
	C229.335754,185.339676 231.614410,185.695786 233.206818,185.673279 
	C237.703857,185.609695 242.202667,185.679581 246.700089,185.631271 
	C248.121384,185.616028 249.665985,185.938660 251.972168,184.012283 
	C239.200439,179.491669 228.098221,172.486526 213.987854,174.056335 
M244.753830,166.772766 
	C244.900162,164.540222 244.078857,162.866928 241.920105,162.031494 
	C229.776352,157.331772 225.815247,145.356781 218.917557,136.024506 
	C216.918961,133.320511 217.539429,130.234604 219.786392,127.756561 
	C222.093414,125.212280 224.915695,124.156265 228.321259,125.562691 
	C231.857117,127.022926 235.333633,128.678772 238.966202,129.843155 
	C249.487183,133.215454 259.519318,133.307983 268.134613,124.544739 
	C265.966553,120.099571 263.846405,115.614868 260.643494,111.749710 
	C259.225861,110.038940 257.658600,109.684792 256.031036,111.497353 
	C255.135849,112.494301 253.021423,113.392525 256.401093,115.059998 
	C251.867630,113.957291 249.125488,116.859970 245.777191,117.574280 
	C235.636078,119.737732 227.665527,115.332657 220.501190,108.900864 
	C215.721375,104.609772 211.168152,100.066284 205.543991,94.712883 
	C206.279175,98.655907 205.494720,101.046478 204.284180,103.419510 
	C202.814804,106.299950 203.268753,109.232933 204.813156,112.024666 
	C206.446564,114.977333 208.543213,117.642235 211.189880,119.631004 
	C215.005264,122.497971 215.561630,124.911774 211.714645,128.310486 
	C209.237350,130.499130 206.950928,133.590134 208.346436,137.137039 
	C210.466400,142.525223 213.522415,147.552536 213.544769,153.617188 
	C213.546997,154.222534 214.496887,154.959656 215.160995,155.406830 
	C223.766907,161.201324 233.001114,165.718323 242.856674,168.977264 
	C244.507446,169.523117 245.014511,168.998810 244.753830,166.772766 
M267.053467,135.593384 
	C268.320648,134.798157 269.610352,134.036087 270.847260,133.196243 
	C271.690796,132.623459 272.475891,131.934708 271.887451,130.736145 
	C271.117615,129.168030 269.987457,129.786789 268.950348,130.338409 
	C267.777893,130.962006 266.668579,131.702988 265.512451,132.358856 
	C261.501801,134.634140 257.827148,137.568222 252.664642,136.968796 
	C245.221588,136.104568 237.781693,135.478027 231.068100,131.648026 
	C229.804306,130.927048 228.277954,130.556458 226.824448,130.314301 
	C225.756729,130.136429 224.456619,129.932297 223.781342,131.335785 
	C223.186096,132.572968 222.755707,133.664612 223.737244,135.026459 
	C225.773026,137.851028 227.611160,140.817261 229.561172,143.704575 
	C233.629730,149.728790 237.174896,156.335632 245.271271,157.955887 
	C253.835892,150.699097 254.680527,150.539810 264.992615,155.990707 
	C271.900879,159.642380 278.630981,163.630310 285.525299,167.309494 
	C288.871735,169.095322 292.226227,171.101730 296.287384,170.777344 
	C300.476959,170.442673 303.916687,168.335739 305.191742,164.562866 
	C306.501312,160.687881 302.495758,159.389709 299.997162,157.706207 
	C294.096558,153.730484 287.149750,151.382462 282.091888,146.068085 
	C280.733551,144.640839 279.017670,145.292450 277.428223,145.938431 
	C275.117279,146.877609 272.783936,147.761566 270.473206,148.701294 
	C268.151093,149.645660 266.417725,149.014267 264.750793,147.138321 
	C259.507996,141.238205 259.577332,140.477509 267.053467,135.593384 
M181.976868,130.428787 
	C180.618637,128.335022 179.245895,126.250504 177.906021,124.145058 
	C176.363190,121.720695 174.107819,121.845367 172.325073,123.285210 
	C170.591217,124.685562 167.132339,125.048492 167.919708,128.495987 
	C168.910858,132.835922 178.796204,141.218521 183.397003,141.824844 
	C187.690018,142.390610 193.973389,149.857590 193.891449,154.296143 
	C193.794724,159.535675 194.877808,160.343430 200.047195,158.729507 
	C202.127518,158.080002 204.055618,157.279358 206.177872,158.828293 
	C213.784210,164.379837 222.719177,167.234146 231.135223,171.177246 
	C240.232880,175.439697 251.563980,175.423538 258.096436,184.801437 
	C258.408478,185.249420 259.284729,185.373077 259.927582,185.510681 
	C263.705292,186.319244 266.636047,186.286636 270.739075,184.056351 
	C275.295624,181.579559 282.288818,183.643814 287.161987,186.736008 
	C290.923767,189.122971 294.685486,189.080200 298.538483,189.243958 
	C300.730011,189.337082 303.245972,188.482025 303.047333,185.346649 
	C302.150452,184.361450 301.119629,184.476089 300.133850,184.475250 
	C288.593079,184.465439 277.314636,182.474106 266.029297,180.272446 
	C232.321442,173.696320 203.748138,158.516418 181.976868,130.428787 
M187.882065,130.618362 
	C193.596878,137.406860 199.396057,144.104111 207.649567,148.747177 
	C203.529846,140.151459 200.186417,131.768066 208.969177,124.164253 
	C201.849915,116.805672 195.512848,109.767265 201.036728,98.854362 
	C199.698959,99.088127 199.097153,99.007790 198.816986,99.270477 
	C195.425598,102.450394 191.971069,105.574242 188.746277,108.918388 
	C179.329361,118.683769 179.346344,119.065109 187.882065,130.618362 
M278.727936,168.837875 
	C272.308105,165.358932 265.985504,161.682587 259.439453,158.460022 
	C253.612656,155.591537 249.203812,158.670334 249.355164,165.133179 
	C249.457642,169.509293 251.506393,172.128387 255.909348,173.230240 
	C269.779236,176.701202 283.785339,179.154831 298.080872,179.992599 
	C305.218933,180.410904 305.458801,180.330963 304.496429,172.770782 
	C299.383850,175.615601 294.121063,176.333939 288.738861,173.833450 
	C285.579926,172.365891 282.490112,170.749496 278.727936,168.837875 
M273.963135,136.935425 
	C271.933197,138.912933 266.349915,139.222260 268.394165,142.804184 
	C270.018890,145.650986 273.931885,142.125946 276.729523,141.021713 
	C276.985443,140.920731 277.120331,140.513260 277.305695,140.243973 
	C276.402405,138.106506 276.402405,138.106506 273.963135,136.935425 
z"/>
<path fill="#000000" opacity="1.000000" stroke="none" 
	d="
M299.117584,289.066895 
	C294.999664,292.894287 295.507111,296.544678 297.953522,300.839844 
	C300.034760,304.493927 302.387360,308.202606 302.949524,312.580139 
	C295.521332,314.320160 294.914154,314.033173 292.037506,307.799652 
	C291.144440,305.864471 290.172821,303.965515 289.126740,301.823883 
	C282.830627,304.717255 282.585876,316.468048 271.937927,312.551575 
	C274.244995,307.594086 277.806213,303.639709 280.990356,299.529297 
	C283.710541,296.017792 284.056641,293.002930 281.842346,289.120544 
	C279.750610,285.453003 277.597473,281.694031 276.589233,277.627228 
	C287.106659,272.696411 286.721436,283.096283 290.684326,287.335846 
	C296.237457,284.099487 296.807526,273.563416 307.282928,277.599518 
	C304.560669,281.418304 301.939392,285.095459 299.117584,289.066895 
z"/>
<path fill="#000000" opacity="1.000000" stroke="none" 
	d="
M274.056030,281.263062 
	C271.454163,284.742828 268.049805,283.129517 265.086517,283.254456 
	C258.717194,283.523071 258.050842,284.124481 258.778687,290.751190 
	C260.942047,291.904266 263.242554,291.536530 265.558624,291.292450 
	C267.400421,291.098297 269.504791,290.809753 269.428040,293.666901 
	C269.368713,295.875061 269.188812,298.177246 266.098816,298.242523 
	C264.433624,298.277710 262.760925,298.359924 261.102905,298.250458 
	C257.614349,298.020233 256.425262,299.785156 256.297028,303.047852 
	C256.160004,306.534882 258.245026,306.750214 260.809326,306.683502 
	C262.973511,306.627197 265.140961,306.648285 267.306030,306.686615 
	C269.014740,306.716827 270.891754,306.728149 270.645203,309.219482 
	C270.467590,311.013885 270.361145,313.183838 267.825348,313.217255 
	C261.062317,313.306458 254.297348,313.247620 247.241882,313.247620 
	C248.555649,301.734222 249.768463,291.033630 251.003433,280.335602 
	C251.296783,277.794464 252.631836,276.583099 255.333054,276.646729 
	C260.494568,276.768311 265.663818,276.778412 270.824524,276.638245 
	C274.042236,276.550873 275.095764,277.834259 274.056030,281.263062 
z"/>
<path fill="#000000" opacity="1.000000" stroke="none" 
	d="
M220.687241,276.671997 
	C222.909439,276.839874 225.160736,276.455048 224.707520,279.399780 
	C224.397125,281.416534 223.900360,283.416199 221.167236,283.335297 
	C220.337921,283.310730 219.506943,283.328430 218.676987,283.342163 
	C209.529465,283.493500 210.964661,282.021362 209.555389,291.571625 
	C211.571381,293.385284 213.910004,292.139252 216.117111,292.154236 
	C217.751297,292.165314 219.864853,291.864258 219.973923,294.158875 
	C220.072601,296.234985 219.697937,299.436676 217.023300,299.006683 
	C207.550491,297.483887 207.426056,303.586060 207.210114,310.022003 
	C207.069733,314.205322 203.848557,313.335022 201.313156,313.245453 
	C198.173660,313.134521 198.774017,310.854675 199.027679,308.877106 
	C200.227798,299.520782 201.608002,290.183044 202.560165,280.801788 
	C202.895218,277.500488 204.269089,276.554932 207.276794,276.641846 
	C211.589996,276.766510 215.909607,276.669861 220.687241,276.671997 
z"/>
<path fill="#000000" opacity="1.000000" stroke="none" 
	d="
M225.648804,313.283081 
	C222.084610,311.808258 223.747284,309.171021 223.943283,307.163147 
	C224.716248,299.245087 225.927017,291.369843 226.704193,283.452087 
	C227.381073,276.556061 227.995346,275.960571 235.493118,277.318176 
	C235.760071,284.870148 233.773087,292.263977 232.953445,299.750336 
	C232.210159,306.539398 231.901871,306.489746 238.974014,306.634552 
	C240.439957,306.664581 241.902496,306.860626 243.560028,306.995972 
	C244.170258,311.564697 242.837906,313.767426 238.048965,313.418518 
	C234.077454,313.129120 230.069611,313.338684 225.648804,313.283081 
z"/>
<path fill="#000000" opacity="1.000000" stroke="none" 
	d="
M157.036133,103.702217 
	C162.696106,103.710320 167.862549,103.688278 173.028107,103.745934 
	C174.504333,103.762413 176.321182,103.720764 176.344086,105.841125 
	C176.365921,107.862473 174.640289,108.149193 173.126923,108.159958 
	C165.295670,108.215668 157.463623,108.214470 149.632339,108.160568 
	C148.106262,108.150063 146.374054,107.780441 146.297394,105.889801 
	C146.212326,103.792183 148.054993,103.790909 149.543793,103.744743 
	C151.874817,103.672470 154.209274,103.710838 157.036133,103.702217 
z"/>
<path fill="#000000" opacity="1.000000" stroke="none" 
	d="
M144.032272,169.665344 
	C147.668137,169.680466 150.817032,169.651184 153.963120,169.731369 
	C155.321915,169.765991 156.761108,170.048950 156.688156,171.861740 
	C156.631653,173.265457 155.466309,173.877457 154.271866,173.888077 
	C148.315765,173.940979 142.357590,173.937408 136.402893,173.816864 
	C135.239822,173.793304 134.118408,173.029358 134.141495,171.613770 
	C134.166275,170.094849 135.406082,169.786835 136.589478,169.740234 
	C138.905090,169.649033 141.225647,169.683105 144.032272,169.665344 
z"/>
<path fill="#000000" opacity="1.000000" stroke="none" 
	d="
M123.274918,142.830856 
	C125.089737,143.161850 126.318130,143.768829 126.219368,145.404816 
	C126.137100,146.767548 124.972427,147.326645 123.780998,147.521378 
	C120.153198,148.114288 116.500931,148.087143 112.868698,147.594177 
	C111.456596,147.402512 110.291771,146.636215 110.487267,144.967651 
	C110.679527,143.326706 111.979576,142.865234 113.393250,142.838928 
	C116.548409,142.780197 119.705147,142.805725 123.274918,142.830856 
z"/>
<path fill="#000000" opacity="1.000000" stroke="none" 
	d="
M191.600662,189.898712 
	C189.992157,189.450562 188.900909,188.858429 189.152939,187.448471 
	C189.394821,186.095245 190.631180,185.728455 191.828064,185.717331 
	C196.120712,185.677399 200.414413,185.679321 204.706894,185.732956 
	C206.122406,185.750641 207.445404,186.209503 207.337769,187.967422 
	C207.229736,189.731995 205.720383,189.931396 204.417328,189.954956 
	C200.291550,190.029510 196.163467,189.976944 191.600662,189.898712 
z"/>
<path fill="#000000" opacity="1.000000" stroke="none" 
	d="
M123.747284,103.690704 
	C125.886887,103.941475 128.492874,103.082092 128.597443,105.651115 
	C128.711670,108.457146 126.039314,108.189857 124.112762,108.230896 
	C120.794975,108.301537 117.470757,108.281914 114.155151,108.150749 
	C112.589111,108.088799 111.001083,107.462677 111.210678,105.541862 
	C111.389565,103.902405 112.961792,103.754395 114.320778,103.734749 
	C117.308640,103.691544 120.297264,103.701111 123.747284,103.690704 
z"/>
<path fill="#000000" opacity="1.000000" stroke="none" 
	d="
M166.302841,170.403320 
	C169.542648,169.224777 172.553253,169.731400 175.533508,169.740280 
	C176.914246,169.744400 178.303925,170.123642 178.288528,171.918564 
	C178.275711,173.415009 177.054779,173.873474 175.876068,173.931732 
	C173.383896,174.054947 170.873672,174.119431 168.387405,173.956085 
	C166.512009,173.832855 165.136368,172.978333 166.302841,170.403320 
z"/>
<path fill="#000000" opacity="1.000000" stroke="none" 
	d="
M147.869461,98.020264 
	C146.448135,97.991348 145.447922,98.018456 144.460083,97.920670 
	C142.876434,97.763901 141.276947,97.251022 141.462906,95.349800 
	C141.626724,93.674774 143.275864,93.682289 144.610291,93.634430 
	C145.770203,93.592834 146.945282,93.514648 148.091202,93.647018 
	C149.920273,93.858292 152.848816,92.716034 153.104385,95.389175 
	C153.413925,98.626984 150.275589,97.744957 147.869461,98.020264 
z"/>
</svg>