<svg version="1.1" id="Layer_1" xmlns="http://www.w3.org/2000/svg" xmlns:xlink="http://www.w3.org/1999/xlink" x="0px" y="0px"
	 width="100%" viewBox="0 0 500 500" enable-background="new 0 0 500 500" xml:space="preserve">
<path fill="#FFFFFF" opacity="1.000000" stroke="none" 
	d="
M267.000000,501.000000 
	C179.333359,501.000000 92.166672,500.974243 5.000196,501.095856 
	C1.576074,501.100647 0.903036,500.423828 0.905301,497.000000 
	C1.013778,333.000092 1.013773,169.000122 0.905335,5.000244 
	C0.903071,1.576938 1.575801,0.903022 4.999879,0.905287 
	C168.999756,1.013775 332.999725,1.013761 496.999634,0.905353 
	C500.422668,0.903090 501.096985,1.575434 501.094727,4.999760 
	C500.986206,168.999634 500.986237,332.999603 501.094604,496.999512 
	C501.096893,500.422272 500.425568,501.101868 497.000275,501.096252 
	C420.500336,500.970673 344.000153,501.000000 267.000000,501.000000 
z"/>
<path fill="#1A1A1A" opacity="1.000000" stroke="none" 
	d="
M301.387512,298.776459 
	C291.965637,298.547882 282.975342,298.501556 273.989746,298.270844 
	C272.447693,298.231232 269.560272,299.509888 269.684174,296.626434 
	C269.793213,294.088318 272.569092,295.089844 274.233002,295.051697 
	C279.063751,294.941010 283.898834,295.035614 288.731598,294.987091 
	C289.972534,294.974670 291.646423,295.366882 291.802582,293.404999 
	C291.910248,292.052429 290.817780,291.364258 289.664673,291.025818 
	C277.827179,287.551270 266.927155,280.749115 253.717438,282.175293 
	C246.139084,282.993500 238.399506,282.379486 230.734268,282.277771 
	C229.283386,282.258514 226.726471,283.300812 226.679382,280.838562 
	C226.624573,277.972321 229.377823,279.078400 230.955444,279.057648 
	C239.061020,278.951050 247.168732,279.008270 255.572189,278.094543 
	C251.871460,275.804901 248.196609,273.471619 244.454132,271.252411 
	C243.342590,270.593292 242.222778,271.348816 241.126862,271.730042 
	C233.905411,274.242371 229.752762,271.208740 230.154724,263.742798 
	C230.361298,259.905884 226.519257,256.004456 222.345963,255.985535 
	C212.179596,255.939438 202.012878,255.971512 191.846298,255.972656 
	C190.846313,255.972763 189.845947,255.994431 188.846420,255.974106 
	C187.491364,255.946579 185.863235,255.931717 185.869843,254.148010 
	C185.876694,252.299438 187.556885,252.431107 188.880646,252.428497 
	C195.713898,252.415024 202.547440,252.453644 209.380264,252.397125 
	C210.981110,252.383911 212.664825,252.834717 215.200256,251.374802 
	C212.032486,248.380600 209.119736,245.589844 206.163223,242.846222 
	C204.221664,241.044525 202.555084,238.724121 203.428497,236.262985 
	C205.099686,231.553894 202.166138,232.310577 199.511719,232.317062 
	C191.178574,232.337418 182.843674,232.411774 174.513596,232.250702 
	C172.834854,232.218246 169.630234,233.663864 169.751465,230.601578 
	C169.858337,227.901489 172.987228,229.081528 174.777283,229.062393 
	C184.942703,228.953644 195.117416,228.773132 205.273621,229.097717 
	C211.390335,229.293213 215.986115,226.211807 219.732300,222.453094 
	C223.695374,218.476776 227.284897,214.047989 231.240448,209.995941 
	C231.981979,209.236313 233.382111,208.648834 232.770538,207.187302 
	C232.177429,205.769852 230.790680,206.215698 229.713013,206.209778 
	C221.713364,206.165817 213.712891,206.229782 205.713913,206.144073 
	C204.077469,206.126541 201.252304,207.080414 201.346802,204.441940 
	C201.430557,202.103149 204.206589,202.796326 205.929855,202.786148 
	C214.762741,202.733963 223.596130,202.758392 232.429337,202.766739 
	C236.235825,202.770325 239.946823,203.032364 243.382278,200.469528 
	C245.927597,198.570724 248.398483,200.095337 250.412994,202.208282 
	C255.356598,207.393402 260.304474,212.575851 266.074249,216.885269 
	C271.905914,221.240921 278.157471,223.992218 285.611847,221.929398 
	C289.409607,220.878418 292.748474,218.876724 294.915100,215.574326 
	C296.743439,212.787537 298.452179,213.276520 300.625854,214.874527 
	C303.213989,216.777222 305.312042,219.021301 306.873688,221.884583 
	C311.978210,231.243637 317.505585,240.350067 323.260101,249.331055 
	C326.605408,254.552032 331.685608,257.210632 336.823303,259.976227 
	C351.148163,267.687195 351.864136,269.125336 349.565704,285.266632 
	C349.401306,286.421234 349.174072,287.567047 349.017120,288.722473 
	C347.115936,302.716187 337.839935,306.793304 325.723114,299.094116 
	C322.262207,296.894989 317.986389,297.392700 314.143005,296.392975 
	C313.765350,296.294708 312.978790,296.553375 312.863373,296.840118 
	C310.242767,303.350647 305.617004,298.892059 301.387512,298.776459 
z"/>
<path fill="#343434" opacity="1.000000" stroke="none" 
	d="
M211.681030,213.092743 
	C212.970932,213.100815 213.802475,213.090164 214.632355,213.122238 
	C215.715057,213.164047 216.652603,213.563934 216.739655,214.753387 
	C216.832458,216.021515 215.782593,216.550018 214.792191,216.558548 
	C206.156906,216.632782 197.520798,216.647812 188.885315,216.602997 
	C187.926697,216.598022 186.772186,216.186539 186.842209,214.896805 
	C186.944229,213.017029 188.446320,213.096649 189.786118,213.095291 
	C196.931381,213.088058 204.076645,213.092575 211.681030,213.092743 
z"/>
<path fill="#171717" opacity="1.000000" stroke="none" 
	d="
M186.006348,282.313690 
	C182.720795,282.313354 179.917160,282.317322 177.113571,282.310791 
	C175.858444,282.307892 174.661499,282.027222 174.767242,280.480560 
	C174.850449,279.263580 175.938812,279.051849 176.983719,279.050812 
	C182.755707,279.045044 188.527756,279.033905 194.299667,279.053345 
	C195.464127,279.057281 196.807770,279.128357 196.877396,280.668640 
	C196.952667,282.333679 195.555450,282.285431 194.404297,282.298950 
	C191.765930,282.329865 189.127014,282.311859 186.006348,282.313690 
z"/>
<path fill="#383838" opacity="1.000000" stroke="none" 
	d="
M157.269745,256.065826 
	C156.183701,256.074371 155.516586,256.116547 154.855026,256.073425 
	C153.283615,255.970947 150.996368,256.518372 151.081833,254.084763 
	C151.167038,251.658264 153.473206,252.362106 155.013641,252.323227 
	C157.836365,252.251984 160.662231,252.297516 163.486725,252.307709 
	C164.917786,252.312866 166.382782,252.638153 166.306992,254.345383 
	C166.247833,255.678345 164.936920,256.071930 163.672134,256.072144 
	C161.678497,256.072479 159.684845,256.064880 157.269745,256.065826 
z"/>
<path fill="#171717" opacity="1.000000" stroke="none" 
	d="
M243.521484,298.317078 
	C239.462891,298.316254 235.842270,298.324738 232.221756,298.309479 
	C231.089859,298.304688 229.695572,298.494324 229.665268,296.809601 
	C229.637543,295.267670 230.865341,295.053467 232.085678,295.048798 
	C236.035294,295.033630 239.985214,295.008423 243.934509,295.044281 
	C245.357437,295.057190 247.492081,294.651306 247.636887,296.501770 
	C247.844360,299.153229 245.374741,298.019348 243.521484,298.317078 
z"/>
<path fill="#343434" opacity="1.000000" stroke="none" 
	d="
M167.350342,213.171326 
	C170.063156,215.349411 168.917313,216.498734 166.543655,216.623276 
	C162.393753,216.841064 158.223877,216.738876 154.064072,216.669556 
	C152.871048,216.649704 151.599380,216.213852 151.762772,214.664581 
	C151.923111,213.144272 153.220932,213.089096 154.427200,213.090973 
	C158.589966,213.097412 162.752747,213.103104 167.350342,213.171326 
z"/>
<path fill="#1A1A1A" opacity="1.000000" stroke="none" 
	d="
M206.770752,279.667328 
	C210.149017,278.596100 213.308472,279.104919 216.446274,279.088531 
	C217.487473,279.083069 218.542999,279.578918 218.543213,280.740326 
	C218.543427,281.934601 217.518066,282.315735 216.419449,282.316071 
	C213.595200,282.316956 210.768143,282.382233 207.947906,282.273468 
	C206.547104,282.219391 205.792770,281.453003 206.770752,279.667328 
z"/>
<path fill="#242424" opacity="1.000000" stroke="none" 
	d="
M192.910858,203.384796 
	C194.226135,205.451004 193.044388,206.072388 191.591553,206.155319 
	C189.129623,206.295853 186.653824,206.215958 184.184250,206.189865 
	C183.122681,206.178665 182.133881,205.828766 182.131210,204.586227 
	C182.128479,203.323959 183.167267,203.019119 184.193237,203.021500 
	C186.988785,203.027969 189.784180,203.107605 192.910858,203.384796 
z"/>
<path fill="#F5F5F5" opacity="1.000000" stroke="none" 
	d="
M302.729919,223.790741 
	C306.276672,226.109024 306.997803,229.937866 309.095428,232.837631 
	C310.186462,234.345886 308.667267,234.733231 307.840149,235.439545 
	C298.751770,243.200729 288.623108,242.785919 278.153320,239.124252 
	C274.864014,237.973846 271.737640,236.365601 268.490723,235.083359 
	C265.564148,233.927643 262.888672,234.501968 260.755615,236.840973 
	C258.460907,239.357254 258.081573,242.304199 259.949615,245.113983 
	C264.466553,251.908081 269.047241,258.670013 273.906738,265.218933 
	C275.099792,266.826782 277.335205,267.903839 279.309418,268.641418 
	C284.197998,270.467804 287.033417,273.385223 285.810913,279.435944 
	C274.462067,276.133850 264.018799,270.966187 254.279968,264.276855 
	C254.006165,264.088806 253.542191,263.865295 253.535172,263.646484 
	C253.307877,256.563751 248.858765,250.656891 247.955948,243.848770 
	C247.524216,240.593079 250.207184,238.165176 252.595367,236.013077 
	C254.799850,234.026520 255.391235,232.280914 252.347015,230.203369 
	C249.026688,227.937408 246.578293,224.696381 244.592407,221.176682 
	C243.321426,218.924072 242.622650,216.465286 243.549866,213.981323 
	C244.847183,210.505859 246.612259,207.170135 244.725220,203.169281 
	C245.141342,202.992264 245.557465,202.815262 245.973587,202.638260 
	C249.096222,205.746048 252.184753,208.889023 255.349228,211.953613 
	C260.490784,216.932922 265.736847,221.717224 272.539337,224.509048 
	C277.022247,226.348877 281.464478,226.983978 286.558350,225.850052 
	C292.320587,226.695923 297.035980,223.027237 302.729919,223.790741 
z"/>
<path fill="#F5F5F5" opacity="1.000000" stroke="none" 
	d="
M329.571777,278.790222 
	C320.123840,273.763733 311.147217,268.685577 301.926331,264.098511 
	C294.398193,260.353485 293.208344,260.660553 287.585907,266.542114 
	C286.043671,268.155426 285.206024,267.974640 283.474945,267.160706 
	C278.689972,264.910797 274.857727,261.808319 272.101654,257.191193 
	C269.471527,252.785187 266.459808,248.599396 263.478729,244.414459 
	C262.377350,242.868362 262.096283,241.358826 262.990662,239.815765 
	C263.984528,238.101028 265.811798,238.184921 267.408203,238.595551 
	C269.324127,239.088379 271.154541,239.919266 273.014038,240.624710 
	C277.025085,242.146362 280.973663,243.586807 285.271179,244.492172 
	C294.084564,246.348907 301.344757,243.683456 308.399994,239.048752 
	C309.794281,238.132812 311.252075,236.484253 312.873627,239.125458 
	C314.542389,241.843597 312.113434,242.144638 310.840424,243.112427 
	C309.652588,244.015427 308.348755,244.766876 307.088470,245.573334 
	C300.849335,249.565903 300.784363,251.988052 306.493439,256.864014 
	C308.191010,258.313843 309.670563,257.690491 311.055756,256.933655 
	C317.039124,253.664490 322.223145,252.263016 327.810608,258.562927 
	C330.928894,262.078857 336.293884,263.568298 340.565399,266.107269 
	C343.362579,267.769867 347.415131,269.355072 346.504089,273.156647 
	C345.486511,277.403137 341.601746,279.640289 337.176849,280.349335 
	C334.600372,280.762177 332.242249,279.978638 329.571777,278.790222 
z"/>
<path fill="#F6F6F6" opacity="1.000000" stroke="none" 
	d="
M237.170105,209.166199 
	C238.707504,207.951782 239.717407,206.526245 241.731064,206.331848 
	C241.834518,207.133270 242.200043,207.916565 241.955368,208.372192 
	C237.156128,217.309738 241.257645,224.114197 247.416321,230.168091 
	C249.685562,232.398712 249.808044,233.685425 247.737915,236.110199 
	C243.824265,240.694290 242.910797,245.800934 246.363892,251.270309 
	C247.952576,253.786667 249.089203,256.559509 249.000397,260.483887 
	C237.739746,251.812546 228.316071,242.424149 221.515503,230.558441 
	C220.166840,228.205292 221.207352,226.431854 222.544342,224.640717 
	C226.746918,219.010590 231.648544,214.036835 237.170105,209.166199 
z"/>
<path fill="#EAEAEA" opacity="1.000000" stroke="none" 
	d="
M293.237854,288.183899 
	C276.751068,283.085815 260.546509,277.998322 246.380264,268.281433 
	C244.208481,266.791748 242.659622,267.619110 240.854614,268.266083 
	C234.918060,270.394012 233.213470,269.206757 233.681305,263.186646 
	C233.893875,260.451233 228.107620,251.633179 225.374191,251.787430 
	C216.984879,252.260849 214.115097,245.160934 209.211075,240.868591 
	C208.253418,240.030396 207.319214,238.841797 207.015305,237.651184 
	C206.470154,235.515335 214.614471,228.592041 216.767929,229.155106 
	C217.616577,229.376984 217.407166,230.202682 217.722076,230.727783 
	C235.338821,260.102875 262.074707,276.749146 294.686340,285.823730 
	C295.349030,287.287994 294.461609,287.688293 293.237854,288.183899 
z"/>
<path fill="#F5F5F5" opacity="1.000000" stroke="none" 
	d="
M342.194611,289.553406 
	C325.887085,289.132843 310.166809,286.543976 294.683197,282.336609 
	C290.445526,281.185120 289.568085,278.101105 289.143005,274.450714 
	C288.688751,270.549591 290.120483,267.630157 293.493561,265.650238 
	C295.577698,264.426880 297.450867,265.554443 299.154449,266.441376 
	C308.898010,271.514282 318.562408,276.738922 328.287201,281.848236 
	C333.554504,284.615601 338.813568,284.666382 344.316101,281.555847 
	C345.482452,281.938812 345.678253,282.637482 345.970581,283.652100 
	C345.894165,284.893829 345.767059,285.784210 345.352356,286.857056 
	C344.182312,287.787140 343.371124,288.615326 342.194611,289.553406 
z"/>
<path fill="#E5E5E5" opacity="1.000000" stroke="none" 
	d="
M293.034485,288.577606 
	C293.472534,287.698181 294.051575,287.122589 294.811279,286.291199 
	C310.882111,289.740845 326.911835,292.511505 343.246826,293.233246 
	C344.183655,293.274628 344.837677,293.600525 344.632935,294.950439 
	C343.743317,295.377563 344.591095,295.243073 343.954956,295.429077 
	C343.348602,295.606384 342.688232,295.388031 342.119690,295.733368 
	C342.825409,295.596497 343.107269,296.097443 343.287964,296.911987 
	C337.966003,299.887177 332.958282,300.099762 327.908356,296.587952 
	C323.205597,293.317566 317.393250,294.014343 312.115875,292.771332 
	C311.829254,292.703827 311.448700,292.844452 311.163361,292.989471 
	C302.138489,297.577972 299.204254,296.910828 293.034485,288.577606 
z"/>
<path fill="#EAEAEA" opacity="1.000000" stroke="none" 
	d="
M311.227173,253.301743 
	C308.447174,254.975891 307.588654,252.939972 306.692657,251.474838 
	C305.566803,249.633926 307.550262,249.321655 308.457764,248.633865 
	C309.770508,247.638870 311.403137,247.028992 312.605927,245.932922 
	C315.873047,242.955688 316.994385,245.596359 318.402344,247.900604 
	C320.510529,251.350861 316.983307,250.675461 315.715546,251.476395 
	C314.479645,252.257233 312.981323,252.622742 311.227173,253.301743 
z"/>
<path fill="#D4D4D4" opacity="1.000000" stroke="none" 
	d="
M303.039307,223.592163 
	C297.870239,224.857895 293.087982,228.409760 287.180847,226.206818 
	C289.370636,223.241577 293.952423,223.973068 295.999634,220.179947 
	C297.675415,220.665756 298.796265,221.718201 300.577545,221.343872 
	C302.464081,220.855011 302.922394,221.847641 303.039307,223.592163 
z"/>
<path fill="#BBBBBB" opacity="1.000000" stroke="none" 
	d="
M342.308655,289.937622 
	C342.022430,288.229370 342.400970,286.938324 344.708038,287.044922 
	C344.964630,288.595276 345.591400,290.713196 342.308655,289.937622 
z"/>
<path fill="#BBBBBB" opacity="1.000000" stroke="none" 
	d="
M300.782562,221.060059 
	C299.421082,222.756226 298.046173,223.837952 296.553558,220.558060 
	C296.361572,220.127914 296.408752,220.149109 296.422638,220.128784 
	C297.554413,220.082642 298.666290,220.101028 300.226379,220.785156 
	C300.733978,221.014923 300.757629,221.055145 300.782562,221.060059 
z"/>
<path fill="#D4D4D4" opacity="1.000000" stroke="none" 
	d="
M300.911682,220.592163 
	C299.619141,220.924881 298.504333,220.834854 296.913025,220.426636 
	C298.012848,218.193100 299.559509,218.540695 300.911682,220.592163 
z"/>
<path fill="#BBBBBB" opacity="1.000000" stroke="none" 
	d="
M346.189056,283.843262 
	C345.657288,283.450653 345.293335,282.897858 344.808044,282.024170 
	C344.686737,281.703278 344.805298,281.743164 344.824615,281.802673 
	C345.068939,281.796417 345.293915,281.730682 345.834595,281.819824 
	C346.219116,282.544159 346.287994,283.113586 346.189056,283.843262 
z"/>
<path fill="#BBBBBB" opacity="1.000000" stroke="none" 
	d="
M343.459229,297.107239 
	C342.748413,296.595886 342.319885,295.951324 341.891357,295.306763 
	C342.511292,295.240570 343.131195,295.174408 344.073914,295.176636 
	C344.178284,295.821411 343.959869,296.397736 343.459229,297.107239 
z"/>
<path fill="#BBBBBB" opacity="1.000000" stroke="none" 
	d="
M346.481934,279.734131 
	C346.438232,279.785034 346.525665,279.683197 346.481934,279.734131 
z"/>
<path fill="#F5F5F5" opacity="1.000000" stroke="none" 
	d="
M346.150635,281.579651 
	C345.932007,281.962402 345.713806,281.950134 345.169739,281.899994 
	C344.782349,280.677063 345.240051,280.493622 346.150635,281.579651 
z"/>
<path fill="#D4D4D4" opacity="1.000000" stroke="none" 
	d="
M294.515747,231.417892 
	C290.157593,230.909958 286.122650,232.067688 282.052521,231.938232 
	C280.502686,231.888947 278.790588,231.919144 279.162018,229.651855 
	C279.560181,227.221130 281.276337,228.616348 282.214111,228.990662 
	C287.333984,231.034195 292.167664,227.717056 297.212738,228.057846 
	C297.249451,230.027618 295.238556,229.975800 294.515747,231.417892 
z"/>
<path fill="#D4D4D4" opacity="1.000000" stroke="none" 
	d="
M277.295410,228.689728 
	C276.993164,228.674377 276.828522,228.520493 276.663910,228.366608 
	C276.920288,228.428131 277.176666,228.489655 277.295410,228.689728 
z"/>
</svg>